<svg width="500.00000000000006" height="500.00000000000006" xmlns="http://www.w3.org/2000/svg">

 <g>
  <title>background</title>
  <rect fill="none" id="canvas_background" height="402" width="582" y="-1" x="-1"/>
 </g>
 <g>
  <title>Layer 1</title>
  <circle id="svg_2" fill="#F4F1F0" r="250" cy="250" cx="250"/>
  <path id="svg_4" fill="#8a529a" d="m383.377014,113.889l-266.751015,0c-4.323997,0 -7.850998,3.526001 -7.850998,7.850998l0,157.145012l0,3.688995l0,18.375c0,4.845001 3.526001,8.811005 7.850998,8.811005l60.394997,0c2.102005,-0.830017 4.248001,-1.665009 6.443008,-2.516998c4.248001,-1.649017 8.636993,-3.348022 13.014999,-5.182007c9.919998,-4.134003 15.947998,-6.863007 19.43399,-8.528015l0.100006,-10.362c-1.539993,-1.914978 -3.330994,-4.687988 -5.009995,-8.441986l-86.453003,0l0,-141.314011l250.266006,0l0,141.314011l-85.817993,0c-1.675995,3.754974 -3.472015,6.526978 -5.002014,8.441986l0.093018,10.362c3.477997,1.660004 9.498993,4.394989 19.427979,8.528015c4.378021,1.827972 8.772003,3.531982 13.01001,5.175995c2.203003,0.856995 4.341003,1.691986 6.455994,2.522003l60.395996,0c4.318024,0 7.845001,-3.966003 7.845001,-8.811005l0,-18.375l0,-3.688995l0,-157.145004c-0.002014,-4.323997 -3.528992,-7.849998 -7.846985,-7.849998z"/>
  <path id="svg_5" fill="#8a529a" d="m346.463013,333.821014c-6.03299,-9.407013 -26.286011,-15.25 -46.343994,-23.610016c-0.369019,-0.151978 -0.710999,-0.292999 -1.074005,-0.450989c-19.119019,-7.996002 -23.730011,-10.802002 -23.730011,-10.802002l-0.178986,-19.238007c0,0 1.816986,-1.415985 3.944,-4.990997c2.201996,-3.694 4.708984,-9.678986 5.902008,-18.875c4.687988,1.362 9.625,-7.005997 9.884979,-11.422989c0.261017,-4.242004 -0.649994,-16.031998 -6.380005,-14.846008c1.171997,-8.875992 2.019012,-16.848999 1.611023,-21.069c-1.492004,-15.457001 -16.70401,-31.748993 -40.099014,-31.748993c-23.395996,0 -38.608994,16.291992 -40.102005,31.748993c-0.408997,4.221008 0.442001,12.193008 1.614014,21.069c-5.73201,-1.185989 -6.644012,10.604004 -6.383011,14.846008c0.266006,4.416992 5.194,12.784988 9.901001,11.422989c1.182999,9.196014 3.694,15.181 5.891998,18.875c2.126999,3.575012 3.947006,4.990997 3.947006,4.990997l-0.184998,19.238007c0,0 -4.617004,2.806 -23.733002,10.802002c-0.369003,0.15799 -0.705002,0.299011 -1.078995,0.450989c-20.049011,8.360016 -40.305008,14.203003 -46.333008,23.610016c-5.403,8.42099 -3.781006,37.131989 -3.781006,37.131989l100.242996,0l100.238007,0c0,0 1.627991,-28.710999 -3.774994,-37.131989z"/>
  <polygon id="svg_7" fill="#675F58" points="145.109,165.541 156.353,176.779 145.109,188.023 149.938,192.852 166.013,176.779       149.938,160.71     "/>
  <rect id="svg_8" fill="#675F58" y="169.954" x="174.84" width="20.486" height="6.825"/>
  <path id="svg_9" fill="#8a529a" d="m367.638824,387.039001l-237.396988,0c0,0 -7.464989,-43.712006 0,-50.890015c37.296005,-35.866974 195.431992,-32.612 237.396988,0c8.393005,6.527008 0,50.890015 0,50.890015z"/>
 </g>
</svg>